<svg width="130" height="130" viewBox="0 0 130 130" fill="none" xmlns="http://www.w3.org/2000/svg">
<g filter="url(#filter0_i_1089_10185)">
<rect width="130" height="130" rx="65" fill="#1A1B22"/>
<path d="M41.3275 54.2664C42.798 54.2664 44.2082 53.6823 45.248 52.6425C46.2877 51.6027 46.8719 50.1925 46.8719 48.722C46.8719 47.2516 46.2877 45.8413 45.248 44.8016C44.2082 43.7618 42.798 43.1777 41.3275 43.1777C39.857 43.1777 38.4468 43.7618 37.407 44.8016C36.3673 45.8413 35.7831 47.2516 35.7831 48.722C35.7831 50.1925 36.3673 51.6027 37.407 52.6425C38.4468 53.6823 39.857 54.2664 41.3275 54.2664ZM85.3498 63.8027C86.6805 65.1334 87.5306 66.9815 87.5306 69.0514C87.5306 71.0843 86.7175 72.9325 85.3498 74.2631L66.8686 92.7444C66.183 93.4335 65.368 93.9803 64.4705 94.3534C63.5729 94.7266 62.6104 94.9186 61.6384 94.9186C60.6664 94.9186 59.7039 94.7266 58.8063 94.3534C57.9088 93.9803 57.0938 93.4335 56.4082 92.7444L30.5714 66.9076C29.2038 65.54 28.3906 63.6918 28.3906 61.6589V43.1777C28.3906 39.0748 31.6803 35.7852 35.7831 35.7852H54.2644C56.2973 35.7852 58.1454 36.5983 59.4761 37.929L85.3498 63.8027ZM71.0454 42.1057L74.7416 38.4095L100.135 63.8027C101.502 65.1334 102.316 67.0185 102.316 69.0514C102.316 71.0843 101.502 72.9325 100.172 74.2631L80.286 94.1489L76.5897 90.4527L97.6953 69.0514L71.0454 42.1057Z" fill="url(#paint0_linear_1089_10185)"/>
</g>
<defs>
<filter id="filter0_i_1089_10185" x="0" y="0" width="130" height="131.529" filterUnits="userSpaceOnUse" color-interpolation-filters="sRGB">
<feFlood flood-opacity="0" result="BackgroundImageFix"/>
<feBlend mode="normal" in="SourceGraphic" in2="BackgroundImageFix" result="shape"/>
<feColorMatrix in="SourceAlpha" type="matrix" values="0 0 0 0 0 0 0 0 0 0 0 0 0 0 0 0 0 0 127 0" result="hardAlpha"/>
<feMorphology radius="1.52941" operator="erode" in="SourceAlpha" result="effect1_innerShadow_1089_10185"/>
<feOffset dy="1.52941"/>
<feGaussianBlur stdDeviation="1.52941"/>
<feComposite in2="hardAlpha" operator="arithmetic" k2="-1" k3="1"/>
<feColorMatrix type="matrix" values="0 0 0 0 0.282353 0 0 0 0 0.286275 0 0 0 0 0.305882 0 0 0 1 0"/>
<feBlend mode="normal" in2="shape" result="effect1_innerShadow_1089_10185"/>
</filter>
<linearGradient id="paint0_linear_1089_10185" x1="65.3531" y1="35.7852" x2="65.3531" y2="94.9186" gradientUnits="userSpaceOnUse">
<stop stop-color="#87BBFF"/>
<stop offset="1" stop-color="#20416B"/>
</linearGradient>
</defs>
</svg>
