<svg width="130" height="130" viewBox="0 0 130 130" fill="none" xmlns="http://www.w3.org/2000/svg">
<g filter="url(#filter0_i_1089_6726)">
<rect width="130" height="130" rx="65" fill="#1A1B22"/>
<path fill-rule="evenodd" clip-rule="evenodd" d="M68.3563 26.4903C68.0604 25.8492 67.5871 25.3062 66.9924 24.9256C66.3976 24.545 65.7063 24.3428 65.0002 24.3428C64.2941 24.3428 63.6028 24.545 63.008 24.9256C62.4133 25.3062 61.94 25.8492 61.6442 26.4903L51.0364 49.4799L25.8994 52.4626C25.1981 52.5455 24.5351 52.8275 23.9891 53.2753C23.443 53.7231 23.0367 54.3179 22.8181 54.9895C22.5996 55.661 22.578 56.3811 22.756 57.0645C22.9339 57.7479 23.3039 58.3661 23.8222 58.8458L42.4135 76.0325L37.4792 100.87C37.3422 101.563 37.4062 102.28 37.6638 102.937C37.9214 103.594 38.3618 104.164 38.9328 104.578C39.5039 104.993 40.1818 105.236 40.8863 105.277C41.5909 105.319 42.2927 105.158 42.9088 104.814L65.0002 92.4468L87.0917 104.814C87.7081 105.16 88.4108 105.322 89.1164 105.28C89.8221 105.239 90.5011 104.996 91.0729 104.581C91.6448 104.165 92.0855 103.595 92.3429 102.936C92.6002 102.278 92.6634 101.56 92.5249 100.867L87.5906 76.0362L106.178 58.8458C106.697 58.3661 107.067 57.7479 107.244 57.0645C107.422 56.3811 107.401 55.661 107.182 54.9895C106.964 54.3179 106.557 53.7231 106.011 53.2753C105.465 52.8275 104.802 52.5455 104.101 52.4626L78.9603 49.4762L68.3563 26.4903Z" fill="url(#paint0_linear_1089_6726)"/>
</g>
<defs>
<filter id="filter0_i_1089_6726" x="0" y="0" width="130" height="131.529" filterUnits="userSpaceOnUse" color-interpolation-filters="sRGB">
<feFlood flood-opacity="0" result="BackgroundImageFix"/>
<feBlend mode="normal" in="SourceGraphic" in2="BackgroundImageFix" result="shape"/>
<feColorMatrix in="SourceAlpha" type="matrix" values="0 0 0 0 0 0 0 0 0 0 0 0 0 0 0 0 0 0 127 0" result="hardAlpha"/>
<feMorphology radius="1.52941" operator="erode" in="SourceAlpha" result="effect1_innerShadow_1089_6726"/>
<feOffset dy="1.52941"/>
<feGaussianBlur stdDeviation="1.52941"/>
<feComposite in2="hardAlpha" operator="arithmetic" k2="-1" k3="1"/>
<feColorMatrix type="matrix" values="0 0 0 0 0.282353 0 0 0 0 0.286275 0 0 0 0 0.305882 0 0 0 1 0"/>
<feBlend mode="normal" in2="shape" result="effect1_innerShadow_1089_6726"/>
</filter>
<linearGradient id="paint0_linear_1089_6726" x1="65.0002" y1="24.3428" x2="65.0002" y2="105.287" gradientUnits="userSpaceOnUse">
<stop stop-color="#87BBFF"/>
<stop offset="1" stop-color="#20416B"/>
</linearGradient>
</defs>
</svg>
