<svg width="130" height="130" viewBox="0 0 130 130" fill="none" xmlns="http://www.w3.org/2000/svg">
<g filter="url(#filter0_i_1089_2507)">
<rect width="130" height="130" rx="65" fill="#1A1B22"/>
<path d="M104.352 63.1597C100.677 46.5464 95.1469 37.6793 86.9433 35.2572C85.2189 34.7513 83.4301 34.4986 81.6331 34.507C79.2578 34.507 77.1891 35.0857 75.0009 35.699C72.364 36.4388 69.3684 37.2791 65.0007 37.2791C60.633 37.2791 57.6357 36.4405 54.9936 35.7008C52.8036 35.0857 50.7367 34.507 48.3684 34.507C46.5101 34.5005 44.6599 34.7524 42.871 35.2555C34.7108 37.6672 29.184 46.5308 25.4556 63.1493C21.4465 81.0326 23.4198 92.3235 30.9893 94.9431C32.0268 95.3089 33.1186 95.4975 34.2187 95.501C39.4042 95.501 43.5623 91.1818 46.4037 87.6457C49.614 83.6435 53.3719 81.613 65.0007 81.613C75.3873 81.613 79.6857 83.0215 83.3985 87.6457C85.7322 90.5529 87.9378 92.5869 90.1381 93.8672C93.0643 95.5686 95.9889 95.9463 98.8285 94.9708C103.302 93.4445 105.866 89.4094 106.452 82.9748C106.897 78.0405 106.211 71.5591 104.352 63.1597ZM56.6845 62.2276H51.1404V67.7717C51.1404 68.5069 50.8484 69.212 50.3285 69.7319C49.8086 70.2518 49.1035 70.5438 48.3684 70.5438C47.6332 70.5438 46.9281 70.2518 46.4082 69.7319C45.8883 69.212 45.5963 68.5069 45.5963 67.7717V62.2276H40.0522C39.317 62.2276 38.6119 61.9356 38.092 61.4157C37.5722 60.8958 37.2801 60.1908 37.2801 59.4556C37.2801 58.7204 37.5722 58.0153 38.092 57.4954C38.6119 56.9756 39.317 56.6835 40.0522 56.6835H45.5963V51.1394C45.5963 50.4042 45.8883 49.6991 46.4082 49.1792C46.9281 48.6594 47.6332 48.3673 48.3684 48.3673C49.1035 48.3673 49.8086 48.6594 50.3285 49.1792C50.8484 49.6991 51.1404 50.4042 51.1404 51.1394V56.6835H56.6845C57.4197 56.6835 58.1248 56.9756 58.6447 57.4954C59.1645 58.0153 59.4566 58.7204 59.4566 59.4556C59.4566 60.1908 59.1645 60.8958 58.6447 61.4157C58.1248 61.9356 57.4197 62.2276 56.6845 62.2276ZM71.2378 62.9206C70.5525 62.9206 69.8826 62.7174 69.3127 62.3367C68.7429 61.9559 68.2988 61.4148 68.0365 60.7816C67.7743 60.1484 67.7056 59.4517 67.8393 58.7796C67.973 58.1074 68.3031 57.49 68.7877 57.0054C69.2723 56.5208 69.8897 56.1908 70.5618 56.0571C71.234 55.9234 71.9307 55.992 72.5639 56.2543C73.197 56.5165 73.7382 56.9606 74.1189 57.5305C74.4997 58.1003 74.7029 58.7702 74.7029 59.4556C74.7029 60.3746 74.3378 61.2559 73.688 61.9057C73.0382 62.5556 72.1568 62.9206 71.2378 62.9206ZM78.861 70.5438C78.1753 70.5438 77.505 70.3404 76.935 69.9592C76.365 69.5781 75.9209 69.0364 75.6589 68.4027C75.3969 67.7691 75.3288 67.0719 75.4632 66.3995C75.5976 65.7271 75.9284 65.1097 76.4139 64.6255C76.8994 64.1412 77.5176 63.8119 78.1903 63.6792C78.8631 63.5465 79.56 63.6163 80.193 63.8799C80.826 64.1435 81.3666 64.589 81.7463 65.1599C82.126 65.7309 82.3278 66.4017 82.3261 67.0874C82.3238 68.0049 81.9577 68.884 81.3081 69.532C80.6585 70.1799 79.7785 70.5438 78.861 70.5438ZM78.861 55.2975C78.1757 55.2975 77.5057 55.0943 76.9359 54.7135C76.3661 54.3328 75.922 53.7916 75.6597 53.1584C75.3974 52.5253 75.3288 51.8286 75.4625 51.1564C75.5962 50.4842 75.9262 49.8668 76.4108 49.3822C76.8954 48.8976 77.5128 48.5676 78.185 48.4339C78.8572 48.3002 79.5539 48.3688 80.187 48.6311C80.8202 48.8934 81.3614 49.3375 81.7421 49.9073C82.1229 50.4771 82.3261 51.1471 82.3261 51.8324C82.3261 52.7514 81.961 53.6328 81.3112 54.2826C80.6614 54.9324 79.78 55.2975 78.861 55.2975ZM86.4842 62.9206C85.7988 62.9206 85.1289 62.7174 84.5591 62.3367C83.9892 61.9559 83.5451 61.4148 83.2829 60.7816C83.0206 60.1484 82.952 59.4517 83.0857 58.7796C83.2194 58.1074 83.5494 57.49 84.034 57.0054C84.5186 56.5208 85.136 56.1908 85.8082 56.0571C86.4803 55.9234 87.177 55.992 87.8102 56.2543C88.4433 56.5165 88.9845 56.9606 89.3653 57.5305C89.746 58.1003 89.9492 58.7702 89.9492 59.4556C89.9492 60.3746 89.5842 61.2559 88.9343 61.9057C88.2845 62.5556 87.4032 62.9206 86.4842 62.9206Z" fill="url(#paint0_linear_1089_2507)"/>
</g>
<defs>
<filter id="filter0_i_1089_2507" x="0" y="0" width="130" height="131.529" filterUnits="userSpaceOnUse" color-interpolation-filters="sRGB">
<feFlood flood-opacity="0" result="BackgroundImageFix"/>
<feBlend mode="normal" in="SourceGraphic" in2="BackgroundImageFix" result="shape"/>
<feColorMatrix in="SourceAlpha" type="matrix" values="0 0 0 0 0 0 0 0 0 0 0 0 0 0 0 0 0 0 127 0" result="hardAlpha"/>
<feMorphology radius="1.52941" operator="erode" in="SourceAlpha" result="effect1_innerShadow_1089_2507"/>
<feOffset dy="1.52941"/>
<feGaussianBlur stdDeviation="1.52941"/>
<feComposite in2="hardAlpha" operator="arithmetic" k2="-1" k3="1"/>
<feColorMatrix type="matrix" values="0 0 0 0 0.282353 0 0 0 0 0.286275 0 0 0 0 0.305882 0 0 0 1 0"/>
<feBlend mode="normal" in2="shape" result="effect1_innerShadow_1089_2507"/>
</filter>
<linearGradient id="paint0_linear_1089_2507" x1="65.0043" y1="34.5068" x2="65.0043" y2="95.501" gradientUnits="userSpaceOnUse">
<stop stop-color="#87BBFF"/>
<stop offset="1" stop-color="#20416B"/>
</linearGradient>
</defs>
</svg>
