<svg width="60" height="60" viewBox="0 0 60 60" fill="none" xmlns="http://www.w3.org/2000/svg">
<rect x="1.5" y="1.5" width="57" height="57" rx="28.5" stroke="#F26969" stroke-width="3"/>
<g clip-path="url(#clip0_469_7928)">
<path d="M14 17.5V32.5C14 33.3284 14.6716 34 15.5 34H20.5C21.3284 34 22 33.3284 22 32.5V17.5C22 16.6716 21.3284 16 20.5 16H15.5C14.6716 16 14 16.6716 14 17.5ZM16.5 30C16.5 29.1716 17.1716 28.5 18 28.5C18.8284 28.5 19.5 29.1716 19.5 30C19.5 30.8284 18.8284 31.5 18 31.5C17.1716 31.5 16.5 30.8284 16.5 30ZM33.5 46C32.2386 46 31.6572 43.5442 31.3793 42.3878C31.0539 41.0337 30.7175 39.6334 29.7922 38.7064C27.7629 36.6737 26.6983 34.0835 24.2224 31.637C24.152 31.5674 24.096 31.4844 24.0579 31.393C24.0197 31.3016 24.0001 31.2035 24.0001 31.1044V17.7438C24.0001 17.335 24.3278 17.0014 24.7365 16.9939C25.7259 16.9758 27.0299 16.4265 28.0272 15.9828C30.0118 15.0999 32.4818 14.0011 35.4997 14H35.6774C38.351 14 41.5126 14.0258 42.7883 15.8586C43.3128 16.6121 43.4412 17.5482 43.1726 18.6481C44.1921 19.7139 44.739 21.702 44.1964 23.3204C45.2929 24.7849 45.3929 26.8286 44.7782 28.2872L44.7851 28.2941C45.5284 29.0409 46.0052 30.2478 46 31.3689C45.9902 33.2659 44.3652 35 42.2779 35H35.9202C36.3769 36.7712 38 38.2583 38 40.9093C38 45.5 35 46 33.5 46Z" fill="#F26969"/>
</g>
<defs>
<clipPath id="clip0_469_7928">
<rect width="32" height="32" fill="white" transform="translate(14 14)"/>
</clipPath>
</defs>
</svg>
