<svg width="60" height="60" viewBox="0 0 60 60" fill="none" xmlns="http://www.w3.org/2000/svg">
<rect x="1.5" y="1.5" width="57" height="57" rx="28.5" stroke="#4ED17E" stroke-width="3"/>
<g clip-path="url(#clip0_469_7916)">
<path d="M20.5 28H15.5C14.6716 28 14 28.6716 14 29.5V44.5C14 45.3284 14.6716 46 15.5 46H20.5C21.3284 46 22 45.3284 22 44.5V29.5C22 28.6716 21.3284 28 20.5 28ZM18 43.5C17.1716 43.5 16.5 42.8284 16.5 42C16.5 41.1716 17.1716 40.5 18 40.5C18.8284 40.5 19.5 41.1716 19.5 42C19.5 42.8284 18.8284 43.5 18 43.5ZM38 19.0908C38 21.7418 36.3769 23.2288 35.9202 25H42.2779C44.3652 25 45.9902 26.7341 45.9999 28.6311C46.0052 29.7523 45.5283 30.9592 44.785 31.7059L44.7781 31.7128C45.3929 33.1714 45.2929 35.2151 44.1964 36.6796C44.7389 38.2981 44.1921 40.2861 43.1725 41.3519C43.4411 42.4518 43.3127 43.3879 42.7882 44.1414C41.5126 45.9742 38.351 46 35.6774 46L35.4996 45.9999C32.4817 45.9989 30.0118 44.9001 28.0271 44.0171C27.0298 43.5734 25.7258 43.0242 24.7364 43.006C24.3277 42.9985 24 42.6649 24 42.2561V28.8955C24 28.6955 24.0801 28.5036 24.2224 28.3629C26.6982 25.9164 27.7629 23.3263 29.7922 21.2935C30.7174 20.3665 31.0539 18.9662 31.3792 17.6121C31.6572 16.4558 32.2386 14 33.5 14C35 14 38 14.5 38 19.0908Z" fill="#4ED17E"/>
</g>
<defs>
<clipPath id="clip0_469_7916">
<rect width="32" height="32" fill="white" transform="translate(14 14)"/>
</clipPath>
</defs>
</svg>
