<svg width="31" height="31" viewBox="0 0 31 31" fill="none" xmlns="http://www.w3.org/2000/svg">
<path d="M29.4867 14.8356C28.2025 9.02974 26.2699 5.93095 23.403 5.0845C22.8004 4.90771 22.1753 4.8194 21.5472 4.82234C20.7171 4.82234 19.9942 5.02456 19.2295 5.2389C18.308 5.49743 17.2611 5.79109 15.7347 5.79109C14.2083 5.79109 13.1609 5.49804 12.2375 5.2395C11.4722 5.02456 10.7499 4.82234 9.92223 4.82234C9.27282 4.82005 8.62625 4.90808 8.00108 5.0839C5.14932 5.92671 3.21788 9.02429 1.91491 14.8319C0.513854 21.0816 1.20348 25.0274 3.84878 25.9429C4.21137 26.0707 4.5929 26.1366 4.97737 26.1379C6.78954 26.1379 8.24266 24.6284 9.23563 23.3927C10.3576 21.994 11.6708 21.2844 15.7347 21.2844C19.3645 21.2844 20.8667 21.7767 22.1642 23.3927C22.9798 24.4086 23.7505 25.1195 24.5195 25.5669C25.5421 26.1615 26.5641 26.2935 27.5565 25.9526C29.1198 25.4192 30.0159 24.009 30.2206 21.7603C30.3762 20.0359 30.1364 17.7709 29.4867 14.8356ZM12.8285 14.5098H10.891V16.4473C10.891 16.7043 10.7889 16.9507 10.6072 17.1323C10.4256 17.314 10.1792 17.4161 9.92223 17.4161C9.6653 17.4161 9.4189 17.314 9.23722 17.1323C9.05555 16.9507 8.95348 16.7043 8.95348 16.4473V14.5098H7.01598C6.75906 14.5098 6.51265 14.4078 6.33097 14.2261C6.1493 14.0444 6.04723 13.798 6.04723 13.5411C6.04723 13.2842 6.1493 13.0378 6.33097 12.8561C6.51265 12.6744 6.75906 12.5723 7.01598 12.5723H8.95348V10.6348C8.95348 10.3779 9.05555 10.1315 9.23722 9.94983C9.4189 9.76815 9.6653 9.66609 9.92223 9.66609C10.1792 9.66609 10.4256 9.76815 10.6072 9.94983C10.7889 10.1315 10.891 10.3779 10.891 10.6348V12.5723H12.8285C13.0854 12.5723 13.3318 12.6744 13.5135 12.8561C13.6952 13.0378 13.7972 13.2842 13.7972 13.5411C13.7972 13.798 13.6952 14.0444 13.5135 14.2261C13.3318 14.4078 13.0854 14.5098 12.8285 14.5098ZM17.9144 14.752C17.6749 14.752 17.4408 14.681 17.2417 14.5479C17.0425 14.4149 16.8873 14.2258 16.7957 14.0045C16.704 13.7832 16.68 13.5397 16.7268 13.3048C16.7735 13.0699 16.8888 12.8542 17.0582 12.6848C17.2275 12.5155 17.4433 12.4001 17.6782 12.3534C17.9131 12.3067 18.1566 12.3307 18.3778 12.4223C18.5991 12.514 18.7882 12.6692 18.9213 12.8683C19.0543 13.0675 19.1254 13.3016 19.1254 13.5411C19.1254 13.8622 18.9978 14.1703 18.7707 14.3973C18.5436 14.6244 18.2356 14.752 17.9144 14.752ZM20.5785 17.4161C20.3389 17.4161 20.1046 17.345 19.9054 17.2118C19.7062 17.0786 19.551 16.8893 19.4594 16.6679C19.3679 16.4464 19.3441 16.2028 19.391 15.9678C19.438 15.7328 19.5536 15.517 19.7233 15.3478C19.893 15.1786 20.109 15.0635 20.3441 15.0171C20.5792 14.9707 20.8228 14.9951 21.044 15.0873C21.2652 15.1794 21.4541 15.3351 21.5868 15.5346C21.7195 15.7341 21.79 15.9685 21.7894 16.2082C21.7886 16.5288 21.6607 16.836 21.4337 17.0625C21.2067 17.2889 20.8991 17.4161 20.5785 17.4161ZM20.5785 12.088C20.339 12.088 20.1049 12.0169 19.9057 11.8839C19.7066 11.7508 19.5514 11.5617 19.4597 11.3404C19.3681 11.1192 19.3441 10.8757 19.3908 10.6408C19.4375 10.4059 19.5529 10.1901 19.7222 10.0208C19.8916 9.85141 20.1073 9.73608 20.3422 9.68935C20.5771 9.64263 20.8206 9.66661 21.0419 9.75826C21.2632 9.84992 21.4523 10.0051 21.5853 10.2043C21.7184 10.4034 21.7894 10.6375 21.7894 10.877C21.7894 11.1982 21.6618 11.5062 21.4347 11.7333C21.2077 11.9604 20.8996 12.088 20.5785 12.088ZM23.2425 14.752C23.003 14.752 22.7689 14.681 22.5698 14.5479C22.3706 14.4149 22.2154 14.2258 22.1238 14.0045C22.0321 13.7832 22.0082 13.5397 22.0549 13.3048C22.1016 13.0699 22.2169 12.8542 22.3863 12.6848C22.5556 12.5155 22.7714 12.4001 23.0063 12.3534C23.2412 12.3067 23.4847 12.3307 23.706 12.4223C23.9272 12.514 24.1163 12.6692 24.2494 12.8683C24.3825 13.0675 24.4535 13.3016 24.4535 13.5411C24.4535 13.8622 24.3259 14.1703 24.0988 14.3973C23.8717 14.6244 23.5637 14.752 23.2425 14.752Z" fill="url(#paint0_linear_744_20772)"/>
<defs>
<linearGradient id="paint0_linear_744_20772" x1="15.736" y1="4.82227" x2="15.736" y2="26.1379" gradientUnits="userSpaceOnUse">
<stop stop-color="#87BBFF"/>
<stop offset="1" stop-color="#20416B"/>
</linearGradient>
</defs>
</svg>
