<svg width="31" height="31" viewBox="0 0 31 31" fill="none" xmlns="http://www.w3.org/2000/svg">
<path d="M9.7121 2.58348C8.04219 2.5657 6.40546 3.05004 5.01413 3.97368C3.62281 4.89731 2.54106 6.21765 1.90917 7.76349C1.27728 9.30932 1.12438 11.0093 1.47031 12.6431C1.81623 14.2769 2.64503 15.7691 3.84922 16.9261L4.67459 17.7593L5.7893 18.8662L5.79318 18.8701L14.6411 27.718C14.8833 27.9598 15.2115 28.0956 15.5537 28.0956C15.8958 28.0956 16.224 27.9598 16.4662 27.718L25.3141 18.8701L25.3167 18.8675L26.425 17.767L27.2646 16.9184L27.2671 16.9158C28.7876 15.3518 29.6342 13.254 29.6253 11.0728C29.6164 8.89152 28.7527 6.8007 27.2196 5.24913C25.6864 3.69756 23.6061 2.80892 21.4251 2.77397C19.2441 2.73902 17.1364 3.56054 15.5543 5.06219C14.0105 3.49786 11.9098 2.60694 9.7121 2.58348Z" fill="url(#paint0_linear_744_20725)"/>
<defs>
<linearGradient id="paint0_linear_744_20725" x1="15.4575" y1="2.58301" x2="15.4575" y2="28.0956" gradientUnits="userSpaceOnUse">
<stop stop-color="#87BBFF"/>
<stop offset="1" stop-color="#20416B"/>
</linearGradient>
</defs>
</svg>
