<svg width="31" height="31" viewBox="0 0 31 31" fill="none" xmlns="http://www.w3.org/2000/svg">
<path d="M5.84998 10.3238V8.03997H8.13379V6.89807C8.13379 6.29236 8.3744 5.71147 8.8027 5.28317C9.231 4.85487 9.81189 4.61426 10.4176 4.61426H17.269V12.6076L20.1238 10.8947L22.9786 12.6076V4.61426H24.1205C25.3195 4.61426 26.4043 5.69907 26.4043 6.89807V25.1686C26.4043 26.3676 25.3195 27.4524 24.1205 27.4524H10.4176C9.2186 27.4524 8.13379 26.3676 8.13379 25.1686V24.0266H5.84998V21.7428H8.13379V17.1752H5.84998V14.8914H8.13379V10.3238H5.84998ZM10.4176 14.8914H8.13379V17.1752H10.4176V14.8914ZM10.4176 10.3238V8.03997H8.13379V10.3238H10.4176ZM10.4176 24.0266V21.7428H8.13379V24.0266H10.4176Z" fill="url(#paint0_linear_744_20743)"/>
<defs>
<linearGradient id="paint0_linear_744_20743" x1="16.1271" y1="4.61426" x2="16.1271" y2="27.4524" gradientUnits="userSpaceOnUse">
<stop stop-color="#87BBFF"/>
<stop offset="1" stop-color="#20416B"/>
</linearGradient>
</defs>
</svg>
