<svg width="31" height="31" viewBox="0 0 31 31" fill="none" xmlns="http://www.w3.org/2000/svg">
<path d="M27.7023 12.347C27.6816 12.7209 27.5708 13.0843 27.3794 13.4062C27.1989 13.7257 26.9523 14.0031 26.6561 14.2199C26.5271 14.3136 26.3756 14.3716 26.2169 14.3878L23.9436 14.6849C23.6914 14.7279 23.4576 14.8448 23.2719 15.0208C22.5873 15.6795 21.8898 16.3124 20.934 17.3199L19.8361 18.4049C19.6933 18.5531 19.591 18.7355 19.539 18.9345L18.3248 23.817C18.33 23.8685 18.33 23.9205 18.3248 23.972C18.1566 24.3506 17.8998 24.6832 17.5761 24.9417C17.2524 25.2002 16.8713 25.3771 16.4648 25.4574H15.9998C15.7467 25.455 15.495 25.4203 15.2507 25.3541C14.855 25.2328 14.4955 25.0153 14.2044 24.7212L10.9236 21.4533L4.8915 27.4853C4.70785 27.6565 4.46496 27.7496 4.21399 27.7452C3.96302 27.7408 3.72356 27.6391 3.54607 27.4616C3.36858 27.2841 3.26691 27.0447 3.26248 26.7937C3.25805 26.5427 3.35121 26.2998 3.52233 26.1162L9.55441 20.0841L6.32525 16.8549C6.0365 16.5568 5.82383 16.1935 5.70525 15.7958C5.57407 15.3999 5.55176 14.9761 5.64066 14.5687C5.71654 14.1671 5.88948 13.7902 6.14441 13.4708C6.40262 13.147 6.73487 12.8901 7.11316 12.7216H7.26816L12.099 11.4299C12.313 11.3728 12.5087 11.2616 12.6673 11.107C14.4627 9.33743 15.0827 8.71743 16.0644 7.65826C16.2315 7.48134 16.3359 7.25444 16.3615 7.01243L16.6715 4.72618C16.6855 4.56306 16.7435 4.40681 16.8394 4.27409C17.1698 3.82938 17.6345 3.50267 18.1648 3.34219C18.695 3.18171 19.2629 3.19596 19.7844 3.38284C20.1336 3.5116 20.4508 3.71428 20.7144 3.97701L27.0177 10.3062C27.2759 10.5682 27.4752 10.8824 27.6022 11.2277C27.7291 11.573 27.7809 11.9414 27.754 12.3083L27.7023 12.347Z" fill="url(#paint0_linear_744_20749)"/>
<defs>
<linearGradient id="paint0_linear_744_20749" x1="15.5116" y1="3.23145" x2="15.5116" y2="27.7453" gradientUnits="userSpaceOnUse">
<stop stop-color="#87BBFF"/>
<stop offset="1" stop-color="#20416B"/>
</linearGradient>
</defs>
</svg>
