<svg width="31" height="31" viewBox="0 0 31 31" fill="none" xmlns="http://www.w3.org/2000/svg">
<path d="M14.2823 4.65392C14.4102 4.39434 14.6083 4.17576 14.854 4.02292C15.0997 3.87007 15.3833 3.78906 15.6727 3.78906C15.962 3.78906 16.2456 3.87007 16.4914 4.02292C16.7371 4.17576 16.9351 4.39434 17.063 4.65392L20.0545 10.716L26.7459 11.6878C27.0322 11.7294 27.3011 11.8503 27.5223 12.0367C27.7434 12.2232 27.908 12.4679 27.9973 12.743C28.0867 13.0181 28.0972 13.3128 28.0278 13.5936C27.9584 13.8745 27.8118 14.1303 27.6046 14.3321L22.7624 19.0519L23.9063 25.7153C23.9551 26.0004 23.9232 26.2934 23.8142 26.5613C23.7052 26.8291 23.5235 27.0612 23.2895 27.2311C23.0555 27.4011 22.7786 27.5022 22.4902 27.5231C22.2017 27.5439 21.9132 27.4836 21.6572 27.349L15.6742 24.2025L9.68812 27.349C9.43218 27.4832 9.14385 27.5431 8.85565 27.5221C8.56746 27.501 8.29088 27.3999 8.05715 27.23C7.82341 27.0601 7.64183 26.8282 7.53288 26.5606C7.42394 26.2929 7.39198 26.0002 7.44062 25.7153L8.58297 19.0503L3.74077 14.3321C3.53353 14.1303 3.38691 13.8745 3.3175 13.5936C3.24808 13.3128 3.25865 13.0181 3.348 12.743C3.43735 12.4679 3.60191 12.2232 3.82308 12.0367C4.04424 11.8503 4.31318 11.7294 4.59947 11.6878L11.2908 10.716L14.2823 4.65392Z" fill="url(#paint0_linear_744_20756)"/>
<defs>
<linearGradient id="paint0_linear_744_20756" x1="15.6727" y1="3.78906" x2="15.6727" y2="27.5271" gradientUnits="userSpaceOnUse">
<stop stop-color="#87BBFF"/>
<stop offset="1" stop-color="#20416B"/>
</linearGradient>
</defs>
</svg>
