<svg width="31" height="31" viewBox="0 0 31 31" fill="none" xmlns="http://www.w3.org/2000/svg">
<path d="M23.25 21.9583V18.0833H19.375V15.5H23.25V11.625H25.8333V15.5H29.7083V18.0833H25.8333V21.9583H23.25ZM14.2083 27.125L10.1073 23.4437C8.55725 22.0444 7.2277 20.7958 6.11859 19.6979C5.00948 18.6 4.09455 17.5667 3.3738 16.5979C2.65305 15.6292 2.12562 14.6927 1.7915 13.7885C1.45739 12.8844 1.29077 11.9372 1.29163 10.9469C1.29163 8.92326 1.96975 7.23893 3.326 5.89388C4.68225 4.54882 6.37218 3.87586 8.3958 3.875C9.51524 3.875 10.5809 4.10664 11.5927 4.56992C12.6045 5.03319 13.4764 5.69496 14.2083 6.55521C14.9402 5.6941 15.8121 5.03233 16.8239 4.56992C17.8357 4.1075 18.9014 3.87586 20.0208 3.875C21.8507 3.875 23.3847 4.42956 24.623 5.53867C25.8613 6.64778 26.6307 7.94461 26.9312 9.42917C26.5437 9.27847 26.1562 9.16567 25.7687 9.09075C25.3812 9.01583 25.0045 8.97794 24.6385 8.97708C22.4642 8.97708 20.6128 9.73615 19.0843 11.2543C17.5559 12.7724 16.7916 14.6182 16.7916 16.7917C16.7916 17.9111 17.0177 18.9716 17.4698 19.973C17.9218 20.9745 18.5569 21.83 19.375 22.5396C18.9659 22.9056 18.4333 23.374 17.7772 23.9449C17.121 24.5158 16.5557 25.0161 16.0812 25.4458L14.2083 27.125Z" fill="url(#paint0_linear_744_20731)"/>
<defs>
<linearGradient id="paint0_linear_744_20731" x1="15.5" y1="3.875" x2="15.5" y2="27.125" gradientUnits="userSpaceOnUse">
<stop stop-color="#87BBFF"/>
<stop offset="1" stop-color="#20416B"/>
</linearGradient>
</defs>
</svg>
