<svg width="246" height="181" viewBox="0 0 246 181" fill="none" xmlns="http://www.w3.org/2000/svg">
<path d="M54.0176 35.2202V172.657H78.948V35.2202H54.0176ZM7.99219 50.562V111.29H22.6947V50.562H7.99219ZM58.4923 57.9133H64.2454V160.192H58.4923V57.9133ZM99.6354 60.3712L85.1643 62.9678L104.925 173.076L119.396 170.48L99.6354 60.3712ZM28.4479 65.9038V152.201H48.2644V65.9038H28.4479ZM118.422 75.0705L109.602 78.8334L111.358 82.9492L120.178 79.1863L118.422 75.0705ZM122.436 84.4779L113.616 88.2405L115.372 92.3562L124.191 88.5937L122.436 84.4779H122.436ZM126.449 93.8856L117.629 97.6476L149.487 172.32L158.307 168.557L126.449 93.8856ZM7.99219 117.043V126.632H22.6947V117.043H7.99219ZM68.7201 119.28H74.4733V160.192H68.7201V119.28ZM7.99219 132.385V172.657H22.6947V132.385H7.99219ZM28.4479 157.955V172.657H48.2644V157.955H28.4479Z" fill="#2A558C"/>
<path fill-rule="evenodd" clip-rule="evenodd" d="M180.549 18.1812C176.251 18.1812 171.996 19.0277 168.025 20.6723C164.055 22.3169 160.447 24.7275 157.408 27.7664C154.369 30.8052 151.959 34.4129 150.314 38.3834C148.67 42.3539 147.823 46.6094 147.823 50.907C147.823 55.2047 148.67 59.4602 150.314 63.4307C151.959 67.4011 154.369 71.0088 157.408 74.0477C160.447 77.0866 164.055 79.4971 168.025 81.1418C171.996 82.7864 176.251 83.6329 180.549 83.6329C189.228 83.6329 197.552 80.185 203.69 74.0477C209.827 67.9104 213.275 59.5865 213.275 50.907C213.275 42.2276 209.827 33.9037 203.69 27.7664C197.552 21.6291 189.228 18.1812 180.549 18.1812ZM140.551 50.907C140.552 44.4835 142.1 38.1547 145.064 32.456C148.027 26.7572 152.32 21.8561 157.579 18.1672C162.838 14.4784 168.907 12.1103 175.275 11.2633C181.642 10.4163 188.12 11.1153 194.16 13.3012C200.2 15.4871 205.625 19.0955 209.976 23.8213C214.326 28.5471 217.475 34.2512 219.155 40.4511C220.835 46.651 220.997 53.1643 219.628 59.4401C218.258 65.7159 215.397 71.5696 211.287 76.5059L234.025 99.2443C234.383 99.5772 234.669 99.9786 234.868 100.425C235.067 100.871 235.174 101.352 235.182 101.84C235.191 102.329 235.101 102.814 234.918 103.266C234.735 103.719 234.463 104.13 234.118 104.476C233.772 104.821 233.361 105.093 232.908 105.276C232.456 105.459 231.971 105.549 231.482 105.54C230.994 105.532 230.513 105.425 230.067 105.226C229.621 105.027 229.219 104.741 228.886 104.383L206.148 81.6451C200.307 86.5103 193.2 89.6102 185.661 90.5817C178.121 91.5532 170.461 90.356 163.577 87.1304C156.694 83.9049 150.872 78.7844 146.794 72.369C142.715 65.9536 140.55 58.5089 140.551 50.907Z" fill="#2A558C"/>
<path fill-rule="evenodd" clip-rule="evenodd" d="M166.85 36.8517C167.155 36.5474 167.568 36.3765 167.999 36.3765C168.429 36.3765 168.842 36.5474 169.147 36.8517L195.147 62.8517C195.307 63.0005 195.435 63.1799 195.523 63.3792C195.612 63.5785 195.66 63.7937 195.664 64.0119C195.668 64.2301 195.628 64.4468 195.546 64.6492C195.464 64.8515 195.342 65.0353 195.188 65.1896C195.034 65.3439 194.85 65.4656 194.648 65.5473C194.445 65.629 194.229 65.6692 194.01 65.6653C193.792 65.6615 193.577 65.6137 193.378 65.5249C193.178 65.4361 192.999 65.308 192.85 65.1484L166.85 39.1484C166.546 38.8437 166.375 38.4307 166.375 38C166.375 37.5694 166.546 37.1564 166.85 36.8517Z" fill="#D93E3E"/>
<path fill-rule="evenodd" clip-rule="evenodd" d="M195.147 36.8517C195.451 37.1564 195.622 37.5694 195.622 38C195.622 38.4307 195.451 38.8437 195.147 39.1484L169.147 65.1484C168.839 65.4354 168.431 65.5917 168.01 65.5842C167.589 65.5768 167.188 65.4063 166.89 65.1085C166.592 64.8108 166.422 64.4092 166.414 63.9882C166.407 63.5672 166.563 63.1597 166.85 62.8517L192.85 36.8517C193.155 36.5474 193.568 36.3765 193.999 36.3765C194.429 36.3765 194.842 36.5474 195.147 36.8517Z" fill="#D93E3E"/>
</svg>
